<svg xmlns="http://www.w3.org/2000/svg" width="128" height="128"><path d="M102 11c13.084 9.938 23.281 24.53 26 41 1.024 12.516 1.311 25.416-4 37l-1.473 3.277C114.363 108.82 101.125 119.591 84 126c-17.433 5.162-36.667 2.982-52.488-5.608C16.001 111.44 6.139 97.266.855 80.332-2.183 67.33-1.573 51.175 4 39l1.438-3.242C13.46 19.366 26.832 8.178 44 2c19.903-5.778 40.873-2.294 58 9Z" fill="#F34336"/><path d="M35 43h57c0 32.614 0 32.614-.875 45.125-.08 1.349-.16 2.698-.238 4.047l-.254 3.836-.222 3.364C90 102 90 102 88 104c-2.05.254-2.05.254-4.602.259l-2.892.019-3.131-.012-3.206.005c-2.239.002-4.478-.002-6.718-.01-3.437-.011-6.873 0-10.31.012-2.172 0-4.344-.003-6.516-.007l-3.131.012-2.892-.02c-.843 0-1.685-.002-2.553-.004C40 104 40 104 38 102c-.354-2.123-.354-2.123-.502-4.782l-.182-3.015-.168-3.273-.193-3.365c-.202-3.563-.39-7.126-.58-10.69l-.406-7.14a10758.983 10758.983 0 0 1-.563-10.104l-.162-3.073-.144-2.673C34.974 50.259 35 46.628 35 43Z" fill="#FEFAFA"/><path d="M63.375 23.625C67 24 67 24 69.438 25.813 71 28 71 28 71 31l2.28-.016c3.385-.02 6.771-.034 10.157-.047l3.588-.025 3.409-.01 3.158-.016C96 31 96 31 97 32v5H31c0-5 0-5 1-6 1.854-.087 3.71-.107 5.566-.098l3.409.01 3.587.026 3.6.013c2.946.012 5.892.028 8.838.049l.375-2.375c.958-4.024 1.897-4.544 6-5Z" fill="#FEFCFC"/><path d="m63 51 4 2v42l-5 1c-2.165-2.165-1.164-7.206-1.168-10.215l-.01-2.806c-.005-1.963-.007-3.926-.007-5.889-.002-3.011-.02-6.022-.04-9.033-.003-1.903-.005-3.806-.005-5.71l-.022-2.742.01-2.538-.005-2.239C61 53 61 53 63 51ZM47 51c3.692.692 3.692.692 5 2 .093 1.35.117 2.707.114 4.06v2.61l-.016 2.834-.005 2.888c-.005 3.057-.018 6.114-.03 9.17A8189.481 8189.481 0 0 1 52 96l-5-1c-.832-9.794-1.155-19.482-1.125-29.313l-.012-3.974.004-3.764.004-3.396C46 52 46 52 47 51Z" fill="#F34C40"/><path d="m78 51 4 1-1 43-5 1c-.05-6.087-.086-12.174-.11-18.262-.01-2.072-.024-4.144-.04-6.216-.025-2.973-.036-5.947-.045-8.92l-.032-2.82v-2.608l-.014-2.301C76 53 76 53 78 51Z" fill="#F3473A"/></svg>